<svg xmlns="http://www.w3.org/2000/svg" viewBox="0 0 780 620" role="img" aria-labelledby="title desc">
  <title id="title">Celular, boleto e WhatsApp em estilo neon</title>
  <desc id="desc">Ilustração vetorial decorativa em azul, roxo e rosa.</desc>
  <defs>
    <linearGradient id="neon" x1="130" y1="80" x2="640" y2="520" gradientUnits="userSpaceOnUse">
      <stop offset="0" stop-color="#00eaff"/>
      <stop offset=".48" stop-color="#6a5cff"/>
      <stop offset="1" stop-color="#ff2fa8"/>
    </linearGradient>
    <radialGradient id="screen" cx="50%" cy="35%" r="80%">
      <stop offset="0" stop-color="#102848"/>
      <stop offset="1" stop-color="#030711"/>
    </radialGradient>
    <filter id="glow" x="-80%" y="-80%" width="260%" height="260%">
      <feGaussianBlur stdDeviation="10" result="b"/>
      <feMerge><feMergeNode in="b"/><feMergeNode in="SourceGraphic"/></feMerge>
    </filter>
    <filter id="soft" x="-80%" y="-80%" width="260%" height="260%">
      <feGaussianBlur stdDeviation="24"/>
    </filter>
  </defs>
  <ellipse cx="390" cy="530" rx="270" ry="55" fill="#3b0f7e" opacity=".35" filter="url(#soft)"/>
  <g opacity=".95" fill="none" stroke="url(#neon)" filter="url(#glow)">
    <ellipse cx="390" cy="505" rx="245" ry="52" stroke-width="4"/>
    <ellipse cx="390" cy="505" rx="205" ry="34" stroke-width="2" opacity=".7"/>
    <path d="M102 393c92-72 488-92 592 6" stroke-width="2" opacity=".45"/>
    <path d="M120 427c118 58 438 55 542-12" stroke-width="2" opacity=".35"/>
  </g>
  <g transform="translate(290 78) rotate(8 115 218)">
    <rect x="0" y="0" width="230" height="438" rx="38" fill="#03060e" stroke="url(#neon)" stroke-width="6" filter="url(#glow)"/>
    <rect x="17" y="18" width="196" height="398" rx="26" fill="url(#screen)" stroke="#26314b" stroke-width="2"/>
    <rect x="78" y="12" width="74" height="9" rx="5" fill="#090d18"/>
    <circle cx="115" cy="180" r="72" fill="#0b1d2d" stroke="#18ff86" stroke-width="5" filter="url(#glow)"/>
    <path d="M115 125a55 55 0 0 0-47 84l-8 31 32-8a55 55 0 1 0 23-107Zm0 96a41 41 0 0 1-21-5.7l-2-1.2-19 4.5 5-18.5-1.3-2.1A41 41 0 1 1 115 221Zm22-30.5c-1.2-.7-7.5-3.7-8.7-4.1-1.2-.4-2-.6-2.9.7-.9 1.3-3.5 4.3-4.3 5.2-.8.9-1.5 1-2.8.3-7.4-3.6-12.3-6.4-17.3-14.8-1.3-2.2 1.3-2 3.6-6.5.4-.9.2-1.9-.2-2.6-.3-.7-2.9-7-4-9.6-1-2.5-2.1-2.2-2.9-2.2h-2.4c-.9 0-2.4.3-3.6 1.7-1.3 1.4-4.9 4.8-4.9 11.6s5 13.4 5.7 14.3c.7.9 9.8 15.2 24 21.2 9 3.9 12.5 4.1 17.1 3.4 2.7-.4 7.5-3.1 8.4-6 .9-2.9.9-5.3.6-6-.3-.5-1.2-.9-2.4-1.5Z" fill="#eafff3"/>
  </g>
  <g transform="translate(195 305) rotate(8 135 105)" filter="url(#glow)">
    <rect x="0" y="0" width="270" height="210" rx="20" fill="#1d1642" stroke="url(#neon)" stroke-width="5"/>
    <rect x="18" y="18" width="234" height="174" rx="12" fill="#dcd4ff"/>
    <text x="38" y="55" font-family="Arial, sans-serif" font-size="26" font-weight="800" fill="#20114e">BOLETO</text>
    <rect x="38" y="74" width="150" height="11" fill="#7f68da"/>
    <rect x="38" y="96" width="192" height="9" fill="#8f7ae2"/>
    <rect x="38" y="116" width="126" height="9" fill="#8f7ae2"/>
    <g fill="#1a113e">
      <rect x="38" y="148" width="4" height="28"/><rect x="46" y="148" width="2" height="28"/><rect x="52" y="148" width="6" height="28"/><rect x="63" y="148" width="3" height="28"/><rect x="71" y="148" width="7" height="28"/><rect x="82" y="148" width="3" height="28"/><rect x="90" y="148" width="6" height="28"/><rect x="101" y="148" width="2" height="28"/><rect x="108" y="148" width="5" height="28"/><rect x="118" y="148" width="3" height="28"/><rect x="126" y="148" width="8" height="28"/><rect x="139" y="148" width="2" height="28"/><rect x="146" y="148" width="5" height="28"/><rect x="156" y="148" width="3" height="28"/><rect x="164" y="148" width="7" height="28"/><rect x="176" y="148" width="3" height="28"/><rect x="184" y="148" width="6" height="28"/><rect x="195" y="148" width="2" height="28"/><rect x="202" y="148" width="8" height="28"/><rect x="215" y="148" width="4" height="28"/>
    </g>
  </g>
  <g fill="#00dfff" opacity=".9" shape-rendering="crispEdges"><rect x="121" y="198" width="8" height="8"/><rect x="151" y="154" width="6" height="6"/><rect x="631" y="248" width="10" height="10"/></g>
  <g fill="#ff2fa8" opacity=".9" shape-rendering="crispEdges"><rect x="632" y="318" width="8" height="8"/><rect x="596" y="154" width="6" height="6"/><rect x="156" y="278" width="10" height="10"/></g>
</svg>
